<?xml version="1.0" encoding="UTF-8"?>
<svg width="1024px" height="1024px" viewBox="0 0 1024 1024" version="1.1" xmlns="http://www.w3.org/2000/svg" xmlns:xlink="http://www.w3.org/1999/xlink">
    <title>Small</title>
    <g id="Template---App-Icons" stroke="none" stroke-width="1" fill="none" fill-rule="evenodd">
        <g id="1---Layer" fill="color(display-p3 0.380 0.333 0.961)">
            <path d="M436.321758,512.624427 C449.354798,535.223283 455.871317,546.522712 456.674436,548.032311 C491.415437,613.333991 445.691922,692.446148 371.766201,694.94301 C370.07888,695 357.052587,695 331,695 C304.947413,695 291.92112,695 290.233799,694.94301 C216.308078,692.446148 170.584563,613.333991 205.325564,548.032311 C206.128683,546.522712 212.645202,535.223283 225.678242,512.624427 C238.692116,490.058802 245.199053,478.77599 246.071406,477.372634 C285.197568,414.430386 376.802432,414.430386 415.928594,477.372634 C416.800947,478.77599 423.307884,490.058802 436.321758,512.624427 Z" id="Triangle" transform="translate(331, 512.5) rotate(90) translate(-331, -512.5)"></path>
        </g>
    </g>
</svg>